<?xml version="1.0" encoding="UTF-8"?>
<svg xmlns="http://www.w3.org/2000/svg" xmlns:xlink="http://www.w3.org/1999/xlink" width="414.33pt" height="484.48pt" viewBox="0 0 414.33 484.48" version="1.1">
<defs>
<clipPath id="clip1">
  <path d="M 277 445 L 319 445 L 319 484.480469 L 277 484.480469 Z M 277 445 "/>
</clipPath>
<clipPath id="clip2">
  <path d="M 373 264 L 414.328125 264 L 414.328125 303 L 373 303 Z M 373 264 "/>
</clipPath>
</defs>
<g id="surface1">
<path style=" stroke:none;fill-rule:nonzero;fill:rgb(95.298767%,44.699097%,13.699341%);fill-opacity:1;" d="M 137.292969 38.480469 L 95.960938 38.480469 L 95.960938 -0.00390625 L 137.292969 -0.00390625 L 137.292969 38.480469 "/>
<path style=" stroke:none;fill-rule:nonzero;fill:rgb(7.099915%,72.898865%,70.199585%);fill-opacity:1;" d="M 41.332031 225.8125 L 0 225.8125 L 0 187.085938 L 41.332031 187.085938 L 41.332031 225.8125 "/>
<g clip-path="url(#clip1)" clip-rule="nonzero">
<path style=" stroke:none;fill-rule:nonzero;fill:rgb(98.399353%,81.199646%,2.69928%);fill-opacity:1;" d="M 318.667969 484.480469 L 277.332031 484.480469 L 277.332031 445.75 L 318.667969 445.75 L 318.667969 484.480469 "/>
</g>
<g clip-path="url(#clip2)" clip-rule="nonzero">
<path style=" stroke:none;fill-rule:nonzero;fill:rgb(84.698486%,8.999634%,43.099976%);fill-opacity:1;" d="M 414.332031 302.8125 L 373 302.8125 L 373 264.085938 L 414.332031 264.085938 L 414.332031 302.8125 "/>
</g>
<path style=" stroke:none;fill-rule:nonzero;fill:rgb(13.699341%,15.299988%,16.499329%);fill-opacity:1;" d="M 137.292969 225.8125 L 95.960938 225.8125 L 95.960938 92.480469 L 137.292969 92.480469 L 137.292969 225.8125 "/>
<path style=" stroke:none;fill-rule:nonzero;fill:rgb(13.699341%,15.299988%,16.499329%);fill-opacity:1;" d="M 318.960938 396.8125 L 277.628906 396.8125 L 277.628906 263.480469 L 318.960938 263.480469 L 318.960938 396.8125 "/>
<path style=" stroke:none;fill-rule:nonzero;fill:rgb(13.699341%,15.299988%,16.499329%);fill-opacity:1;" d="M 173.960938 92.480469 L 173.960938 53.8125 L 318.667969 53.8125 L 318.667969 92.480469 L 228.628906 187.085938 L 318.667969 187.085938 L 318.667969 225.8125 L 171.292969 225.8125 L 171.292969 187.085938 L 262.628906 92.480469 L 173.960938 92.480469 "/>
<path style=" stroke:none;fill-rule:nonzero;fill:rgb(13.699341%,15.299988%,16.499329%);fill-opacity:1;" d="M 95.960938 302.75 L 95.960938 264.085938 L 240.667969 264.085938 L 240.667969 302.75 L 150.628906 397.355469 L 240.667969 397.355469 L 240.667969 436.082031 L 93.292969 436.082031 L 93.292969 397.355469 L 184.628906 302.75 L 95.960938 302.75 "/>
<path style=" stroke:none;fill-rule:nonzero;fill:rgb(0.799561%,0.799561%,0.799561%);fill-opacity:1;" d="M 354.929688 382.707031 L 356.398438 382.707031 C 358.113281 382.707031 359.5 382.136719 359.5 380.746094 C 359.5 379.523438 358.601563 378.710938 356.644531 378.710938 C 355.828125 378.710938 355.257813 378.792969 354.929688 378.875 Z M 354.851563 390.289063 L 351.75 390.289063 L 351.75 376.914063 C 352.972656 376.671875 354.6875 376.507813 356.890625 376.507813 C 359.421875 376.507813 360.554688 376.914063 361.539063 377.488281 C 362.269531 378.058594 362.839844 379.117188 362.839844 380.421875 C 362.839844 381.890625 361.699219 383.03125 360.070313 383.523438 L 360.070313 383.6875 C 361.371094 384.175781 362.109375 385.152344 362.515625 386.945313 C 362.925781 388.984375 363.164063 389.800781 363.496094 390.289063 L 360.152344 390.289063 C 359.746094 389.800781 359.5 388.574219 359.089844 387.027344 C 358.847656 385.5625 358.03125 384.90625 356.320313 384.90625 L 354.851563 384.90625 Z M 346.609375 383.277344 C 346.609375 389.230469 351.019531 393.960938 357.050781 393.960938 C 362.925781 393.960938 367.242188 389.230469 367.242188 383.355469 C 367.242188 377.402344 362.925781 372.59375 356.96875 372.59375 C 351.019531 372.59375 346.609375 377.402344 346.609375 383.277344 Z M 370.667969 383.277344 C 370.667969 390.859375 364.71875 396.8125 356.96875 396.8125 C 349.308594 396.8125 343.191406 390.859375 343.191406 383.277344 C 343.191406 375.855469 349.308594 369.902344 356.96875 369.902344 C 364.71875 369.902344 370.667969 375.855469 370.667969 383.277344 "/>
</g>
</svg>
